<svg id="visual" viewBox="0 0 1200 700" width="1200" height="700" xmlns="http://www.w3.org/2000/svg" xmlns:xlink="http://www.w3.org/1999/xlink" version="1.1"><rect width="1200" height="700" fill="#0a1930"></rect><g><g transform="translate(959 101)"><path d="M53.9 -55.2C67.6 -40.2 74.8 -20.1 74.5 -0.3C74.2 19.5 66.4 39.1 52.7 53.8C39.1 68.5 19.5 78.4 -0.6 79C-20.8 79.6 -41.5 71 -57 56.3C-72.4 41.5 -82.5 20.8 -82.4 0C-82.4 -20.7 -72.3 -41.4 -56.9 -56.4C-41.4 -71.3 -20.7 -80.5 -0.3 -80.2C20.1 -79.9 40.2 -70.1 53.9 -55.2Z" stroke="#B3FFFF" fill="none" stroke-width="20"></path></g><g transform="translate(995 638)"><path d="M53.1 -52C67.8 -38.5 77.8 -19.2 77.9 0.1C78 19.4 68.1 38.8 53.4 52.2C38.8 65.6 19.4 73 0.3 72.7C-18.8 72.4 -37.6 64.4 -52.4 51C-67.1 37.6 -77.8 18.8 -77.9 -0.1C-78 -19 -67.4 -37.9 -52.7 -51.5C-37.9 -65 -19 -73.1 0.1 -73.2C19.2 -73.4 38.5 -65.5 53.1 -52Z" stroke="#B3FFFF" fill="none" stroke-width="20"></path></g><g transform="translate(686 349)"><path d="M40.4 -41C50.6 -30.3 55.8 -15.1 55.5 -0.3C55.2 14.6 49.5 29.1 39.3 39.4C29.1 49.6 14.6 55.6 0.4 55.2C-13.7 54.8 -27.5 48 -37.9 37.8C-48.2 27.5 -55.3 13.7 -56 -0.7C-56.6 -15.1 -51 -30.3 -40.6 -41C-30.3 -51.8 -15.1 -58.2 0 -58.2C15.1 -58.2 30.3 -51.8 40.4 -41Z" stroke="#B3FFFF" fill="none" stroke-width="20"></path></g><g transform="translate(125 143)"><path d="M45.2 -46.1C56.4 -34.1 61.5 -17.1 60.9 -0.7C60.2 15.7 53.7 31.4 42.5 43C31.4 54.6 15.7 62.1 0 62.1C-15.7 62.1 -31.4 54.6 -44 43C-56.6 31.4 -66.2 15.7 -66.5 -0.2C-66.7 -16.2 -57.6 -32.3 -45 -44.3C-32.3 -56.2 -16.2 -63.9 0.4 -64.4C17.1 -64.8 34.1 -58 45.2 -46.1Z" stroke="#B3FFFF" fill="none" stroke-width="20"></path></g><g transform="translate(285 246)"><path d="M30.2 -31C37.7 -22.6 41.6 -11.3 41.7 0.1C41.9 11.5 38.2 23.1 30.7 31.2C23.1 39.3 11.5 43.9 0.4 43.5C-10.8 43.1 -21.6 37.8 -29.7 29.7C-37.7 21.6 -43.1 10.8 -43.1 0C-43 -10.7 -37.6 -21.5 -29.6 -29.9C-21.5 -38.4 -10.7 -44.5 0.3 -44.8C11.3 -45.1 22.6 -39.5 30.2 -31Z" stroke="#B3FFFF" fill="none" stroke-width="20"></path></g></g></svg>