<svg id="visual" viewBox="0 0 1200 700" width="1200" height="700" xmlns="http://www.w3.org/2000/svg" xmlns:xlink="http://www.w3.org/1999/xlink" version="1.1"><rect width="1200" height="700" fill="#0a1930"></rect><g><g transform="translate(444 380)"><path d="M0 -36.5L31.6 -18.3L31.6 18.3L0 36.5L-31.6 18.3L-31.6 -18.3Z" fill="none" stroke="#B3FFFF" stroke-width="4"></path></g><g transform="translate(54 448)"><path d="M0 -33L28.6 -16.5L28.6 16.5L0 33L-28.6 16.5L-28.6 -16.5Z" fill="none" stroke="#B3FFFF" stroke-width="4"></path></g><g transform="translate(1081 371)"><path d="M0 -35L30.3 -17.5L30.3 17.5L0 35L-30.3 17.5L-30.3 -17.5Z" fill="none" stroke="#B3FFFF" stroke-width="4"></path></g><g transform="translate(150 81)"><path d="M0 -29L25.1 -14.5L25.1 14.5L0 29L-25.1 14.5L-25.1 -14.5Z" fill="none" stroke="#B3FFFF" stroke-width="4"></path></g><g transform="translate(594 72)"><path d="M0 -29L25.1 -14.5L25.1 14.5L0 29L-25.1 14.5L-25.1 -14.5Z" fill="none" stroke="#B3FFFF" stroke-width="4"></path></g><g transform="translate(704 627)"><path d="M0 -33L28.6 -16.5L28.6 16.5L0 33L-28.6 16.5L-28.6 -16.5Z" fill="none" stroke="#B3FFFF" stroke-width="4"></path></g><g transform="translate(275 81)"><path d="M0 -28L24.2 -14L24.2 14L0 28L-24.2 14L-24.2 -14Z" stroke="#B3FFFF" fill="none" stroke-width="4"></path></g></g></svg>